<svg xmlns="http://www.w3.org/2000/svg" width="800" height="450" viewBox="0 0 800 450">
  <defs><linearGradient id="gr" x1="0%" y1="0%" x2="100%" y2="100%"><stop offset="0%" style="stop-color:#081a10"/><stop offset="100%" style="stop-color:#081210"/></linearGradient></defs>
  <rect width="800" height="450" fill="url(#gr)"/>
  <rect x="40" y="40" width="720" height="370" rx="10" fill="#111" stroke="#1a3a22" stroke-width="1"/>
  <rect x="40" y="40" width="720" height="48" rx="10" fill="#0f2218"/>
  <rect x="56" y="56" width="150" height="16" rx="4" fill="#1a3a22"/>
  <rect x="580" y="53" width="130" height="22" rx="5" fill="#16A34A" fill-opacity=".85"/>
  <text x="645" y="68" font-family="Arial" font-size="10" fill="#fff" text-anchor="middle" font-weight="700">✓ RESULTS</text>
  <rect x="60" y="108" width="155" height="80" rx="8" fill="#0f2218" stroke="#16A34A" stroke-width="1" stroke-opacity=".5"/>
  <text x="78" y="132" font-family="Arial" font-size="9" fill="#4ADE80">COST PER LEAD</text>
  <text x="78" y="158" font-family="Arial" font-size="24" fill="#4ADE80" font-weight="700">$59</text>
  <text x="78" y="178" font-family="Arial" font-size="9" fill="#4ADE80">▼ −58% saved</text>
  <rect x="235" y="108" width="155" height="80" rx="8" fill="#0f2218" stroke="#16A34A" stroke-width="1" stroke-opacity=".5"/>
  <text x="253" y="132" font-family="Arial" font-size="9" fill="#4ADE80">LEADS / MONTH</text>
  <text x="253" y="158" font-family="Arial" font-size="24" fill="#4ADE80" font-weight="700">192</text>
  <text x="253" y="178" font-family="Arial" font-size="9" fill="#4ADE80">▲ 4× increase</text>
  <rect x="410" y="108" width="155" height="80" rx="8" fill="#0f2218" stroke="#16A34A" stroke-width="1" stroke-opacity=".5"/>
  <text x="428" y="132" font-family="Arial" font-size="9" fill="#4ADE80">QUALITY SCORE</text>
  <text x="428" y="158" font-family="Arial" font-size="24" fill="#4ADE80" font-weight="700">9/10</text>
  <text x="428" y="178" font-family="Arial" font-size="9" fill="#4ADE80">▲ Excellent</text>
  <rect x="585" y="108" width="155" height="80" rx="8" fill="#0f2218" stroke="#16A34A" stroke-width="1" stroke-opacity=".5"/>
  <text x="603" y="132" font-family="Arial" font-size="9" fill="#4ADE80">CLICK-THRU RATE</text>
  <text x="603" y="158" font-family="Arial" font-size="24" fill="#4ADE80" font-weight="700">4.2%</text>
  <text x="603" y="178" font-family="Arial" font-size="9" fill="#4ADE80">▲ 5× higher</text>
  <text x="400" y="420" font-family="Arial" font-size="11" fill="#4ADE80" text-anchor="middle" font-weight="600">✓ After — 4× leads, −58% CPL, Quality Score 9/10</text>
</svg>
