<svg xmlns="http://www.w3.org/2000/svg" width="800" height="450" viewBox="0 0 800 450">
  <defs>
    <linearGradient id="gr" x1="0%" y1="0%" x2="100%" y2="100%">
      <stop offset="0%" style="stop-color:#081a10"/>
      <stop offset="100%" style="stop-color:#081510"/>
    </linearGradient>
  </defs>
  <rect width="800" height="450" fill="url(#gr)"/>
  <rect x="40" y="40" width="720" height="370" rx="10" fill="#111" stroke="#1a3a22" stroke-width="1"/>
  <rect x="40" y="40" width="720" height="48" rx="10" fill="#0f2218"/>
  <rect x="56" y="56" width="120" height="16" rx="4" fill="#1a3a22"/>
  <rect x="580" y="53" width="120" height="22" rx="5" fill="#16A34A" fill-opacity=".85"/>
  <text x="640" y="68" font-family="Arial" font-size="10" fill="#fff" text-anchor="middle" font-weight="700">✓ OPTIMIZED</text>
  <!-- KPI boxes -->
  <rect x="60" y="108" width="160" height="80" rx="8" fill="#0f2218" stroke="#16A34A" stroke-width="1" stroke-opacity=".5"/>
  <text x="80" y="132" font-family="Arial" font-size="9" fill="#4ADE80">ROAS</text>
  <text x="80" y="158" font-family="Arial" font-size="26" fill="#4ADE80" font-weight="700">5.0×</text>
  <text x="80" y="178" font-family="Arial" font-size="9" fill="#4ADE80">▲ 500% growth</text>

  <rect x="240" y="108" width="160" height="80" rx="8" fill="#0f2218" stroke="#16A34A" stroke-width="1" stroke-opacity=".5"/>
  <text x="260" y="132" font-family="Arial" font-size="9" fill="#4ADE80">COST / CLICK</text>
  <text x="260" y="158" font-family="Arial" font-size="26" fill="#4ADE80" font-weight="700">$2.43</text>
  <text x="260" y="178" font-family="Arial" font-size="9" fill="#4ADE80">▼ −42% reduced</text>

  <rect x="420" y="108" width="160" height="80" rx="8" fill="#0f2218" stroke="#16A34A" stroke-width="1" stroke-opacity=".5"/>
  <text x="440" y="132" font-family="Arial" font-size="9" fill="#4ADE80">CONV. RATE</text>
  <text x="440" y="158" font-family="Arial" font-size="26" fill="#4ADE80" font-weight="700">4.7%</text>
  <text x="440" y="178" font-family="Arial" font-size="9" fill="#4ADE80">▲ +422% lift</text>

  <rect x="600" y="108" width="140" height="80" rx="8" fill="#0f2218" stroke="#16A34A" stroke-width="1" stroke-opacity=".5"/>
  <text x="620" y="132" font-family="Arial" font-size="9" fill="#4ADE80">AD SPEND</text>
  <text x="620" y="158" font-family="Arial" font-size="24" fill="#fff" font-weight="700">$3,200</text>
  <text x="620" y="178" font-family="Arial" font-size="9" fill="#888">Same budget</text>

  <!-- Great chart bars — rising -->
  <text x="60" y="225" font-family="Arial" font-size="10" fill="#4ADE80" font-weight="600">Monthly Revenue Growth ↑</text>
  <rect x="60" y="360" width="30" height="-50" rx="3" fill="#16A34A" fill-opacity=".8" y="310"/>
  <rect x="110" y="360" width="30" height="-70" rx="3" fill="#16A34A" fill-opacity=".8" y="290"/>
  <rect x="160" y="360" width="30" height="-90" rx="3" fill="#16A34A" fill-opacity=".85" y="270"/>
  <rect x="210" y="360" width="30" height="-110" rx="3" fill="#16A34A" y="250"/>
  <rect x="260" y="360" width="30" height="-130" rx="3" fill="#16A34A" y="230"/>
  <rect x="310" y="360" width="30" height="-150" rx="3" fill="#4ADE80" y="210"/>
  <text x="400" y="420" font-family="Arial" font-size="11" fill="#4ADE80" text-anchor="middle" font-weight="600">✓ After Optimization — 5× ROAS, same budget, 3.2× revenue</text>
</svg>
